<mxfile host="app.diagrams.net" modified="2022-10-12T09:44:53.468Z" agent="5.0 (Windows NT 10.0; Win64; x64) AppleWebKit/537.36 (KHTML, like Gecko) Chrome/106.0.0.0 Safari/537.36" etag="YzQwy3kwgiR97ywSKF4M" version="20.4.0" type="github">
  <diagram name="Page-1" id="74e2e168-ea6b-b213-b513-2b3c1d86103e">
    <mxGraphModel dx="1038" dy="587" grid="1" gridSize="10" guides="1" tooltips="1" connect="1" arrows="1" fold="1" page="1" pageScale="1" pageWidth="1100" pageHeight="850" background="none" math="0" shadow="0">
      <root>
        <mxCell id="0" />
        <mxCell id="1" parent="0" />
        <mxCell id="77e6c97f196da883-1" value="Event Organizer Online" style="swimlane;html=1;childLayout=stackLayout;startSize=20;rounded=0;shadow=0;labelBackgroundColor=none;strokeWidth=1;fontFamily=Verdana;fontSize=8;align=center;" parent="1" vertex="1">
          <mxGeometry x="70" y="40" width="330" height="940" as="geometry" />
        </mxCell>
        <mxCell id="77e6c97f196da883-2" value="User" style="swimlane;html=1;startSize=20;" parent="77e6c97f196da883-1" vertex="1">
          <mxGeometry y="20" width="160" height="920" as="geometry" />
        </mxCell>
        <mxCell id="77e6c97f196da883-11" value="Memilih event" style="rounded=1;whiteSpace=wrap;html=1;shadow=0;labelBackgroundColor=none;strokeWidth=1;fontFamily=Verdana;fontSize=8;align=center;" parent="77e6c97f196da883-2" vertex="1">
          <mxGeometry x="30" y="90" width="100" height="60" as="geometry" />
        </mxCell>
        <mxCell id="_BVxVds4RlHdZlTq_FJE-15" style="edgeStyle=orthogonalEdgeStyle;rounded=0;orthogonalLoop=1;jettySize=auto;html=1;entryX=0.5;entryY=0;entryDx=0;entryDy=0;" edge="1" parent="77e6c97f196da883-2" source="77e6c97f196da883-18" target="_BVxVds4RlHdZlTq_FJE-8">
          <mxGeometry relative="1" as="geometry" />
        </mxCell>
        <mxCell id="77e6c97f196da883-18" value="Pilih jumlah tiket event" style="rounded=1;whiteSpace=wrap;html=1;shadow=0;labelBackgroundColor=none;strokeWidth=1;fontFamily=Verdana;fontSize=8;align=center;" parent="77e6c97f196da883-2" vertex="1">
          <mxGeometry x="30" y="190" width="100" height="60" as="geometry" />
        </mxCell>
        <mxCell id="_BVxVds4RlHdZlTq_FJE-8" value="Mengisi form pengisian event" style="rounded=1;whiteSpace=wrap;html=1;shadow=0;labelBackgroundColor=none;strokeWidth=1;fontFamily=Verdana;fontSize=8;align=center;" vertex="1" parent="77e6c97f196da883-2">
          <mxGeometry x="30" y="300" width="100" height="60" as="geometry" />
        </mxCell>
        <mxCell id="_BVxVds4RlHdZlTq_FJE-22" value="Pilih metode pembayaran" style="rounded=1;whiteSpace=wrap;html=1;shadow=0;labelBackgroundColor=none;strokeWidth=1;fontFamily=Verdana;fontSize=8;align=center;" vertex="1" parent="77e6c97f196da883-2">
          <mxGeometry x="30" y="390" width="100" height="60" as="geometry" />
        </mxCell>
        <mxCell id="_BVxVds4RlHdZlTq_FJE-26" value="User melakukan pembayaran" style="rounded=1;whiteSpace=wrap;html=1;shadow=0;labelBackgroundColor=none;strokeWidth=1;fontFamily=Verdana;fontSize=8;align=center;" vertex="1" parent="77e6c97f196da883-2">
          <mxGeometry x="30" y="500" width="100" height="60" as="geometry" />
        </mxCell>
        <mxCell id="_BVxVds4RlHdZlTq_FJE-41" style="edgeStyle=orthogonalEdgeStyle;rounded=0;orthogonalLoop=1;jettySize=auto;html=1;entryX=0.5;entryY=0;entryDx=0;entryDy=0;" edge="1" parent="77e6c97f196da883-2" source="_BVxVds4RlHdZlTq_FJE-35" target="_BVxVds4RlHdZlTq_FJE-40">
          <mxGeometry relative="1" as="geometry" />
        </mxCell>
        <mxCell id="_BVxVds4RlHdZlTq_FJE-35" value="user menerima email kode event" style="rounded=1;whiteSpace=wrap;html=1;shadow=0;labelBackgroundColor=none;strokeWidth=1;fontFamily=Verdana;fontSize=8;align=center;" vertex="1" parent="77e6c97f196da883-2">
          <mxGeometry x="30" y="770" width="100" height="60" as="geometry" />
        </mxCell>
        <mxCell id="_BVxVds4RlHdZlTq_FJE-40" value="" style="ellipse;shape=doubleEllipse;whiteSpace=wrap;html=1;aspect=fixed;shadow=0;labelBackgroundColor=default;labelBorderColor=#FFFFFF;sketch=0;fillStyle=auto;strokeWidth=1;fillColor=default;" vertex="1" parent="77e6c97f196da883-2">
          <mxGeometry x="55" y="860" width="50" height="50" as="geometry" />
        </mxCell>
        <mxCell id="_BVxVds4RlHdZlTq_FJE-23" style="edgeStyle=orthogonalEdgeStyle;rounded=0;orthogonalLoop=1;jettySize=auto;html=1;entryX=1;entryY=0.5;entryDx=0;entryDy=0;" edge="1" parent="77e6c97f196da883-1" source="_BVxVds4RlHdZlTq_FJE-16" target="_BVxVds4RlHdZlTq_FJE-22">
          <mxGeometry relative="1" as="geometry" />
        </mxCell>
        <mxCell id="_BVxVds4RlHdZlTq_FJE-25" style="edgeStyle=orthogonalEdgeStyle;rounded=0;orthogonalLoop=1;jettySize=auto;html=1;entryX=0.5;entryY=0;entryDx=0;entryDy=0;exitX=0.5;exitY=1;exitDx=0;exitDy=0;" edge="1" parent="77e6c97f196da883-1" source="_BVxVds4RlHdZlTq_FJE-22" target="_BVxVds4RlHdZlTq_FJE-24">
          <mxGeometry relative="1" as="geometry" />
        </mxCell>
        <mxCell id="_BVxVds4RlHdZlTq_FJE-27" style="edgeStyle=orthogonalEdgeStyle;rounded=0;orthogonalLoop=1;jettySize=auto;html=1;entryX=1;entryY=0.5;entryDx=0;entryDy=0;" edge="1" parent="77e6c97f196da883-1" source="_BVxVds4RlHdZlTq_FJE-24" target="_BVxVds4RlHdZlTq_FJE-26">
          <mxGeometry relative="1" as="geometry" />
        </mxCell>
        <mxCell id="77e6c97f196da883-3" value="System" style="swimlane;html=1;startSize=20;" parent="77e6c97f196da883-1" vertex="1">
          <mxGeometry x="160" y="20" width="170" height="920" as="geometry" />
        </mxCell>
        <mxCell id="_BVxVds4RlHdZlTq_FJE-9" value="Menampilkan event tersedia" style="rounded=1;whiteSpace=wrap;html=1;shadow=0;labelBackgroundColor=none;strokeWidth=1;fontFamily=Verdana;fontSize=8;align=center;" vertex="1" parent="77e6c97f196da883-3">
          <mxGeometry x="40" y="90" width="100" height="60" as="geometry" />
        </mxCell>
        <mxCell id="_BVxVds4RlHdZlTq_FJE-11" style="edgeStyle=orthogonalEdgeStyle;rounded=0;orthogonalLoop=1;jettySize=auto;html=1;entryX=0.5;entryY=0;entryDx=0;entryDy=0;" edge="1" parent="77e6c97f196da883-3" source="_BVxVds4RlHdZlTq_FJE-6" target="_BVxVds4RlHdZlTq_FJE-9">
          <mxGeometry relative="1" as="geometry" />
        </mxCell>
        <mxCell id="_BVxVds4RlHdZlTq_FJE-6" value="" style="ellipse;whiteSpace=wrap;html=1;aspect=fixed;fillColor=#FFFFFF;" vertex="1" parent="77e6c97f196da883-3">
          <mxGeometry x="70" y="30" width="40" height="40" as="geometry" />
        </mxCell>
        <mxCell id="_BVxVds4RlHdZlTq_FJE-10" value="Menampilkan jumlah tiket" style="rounded=1;whiteSpace=wrap;html=1;shadow=0;labelBackgroundColor=none;strokeWidth=1;fontFamily=Verdana;fontSize=8;align=center;" vertex="1" parent="77e6c97f196da883-3">
          <mxGeometry x="40" y="190" width="100" height="60" as="geometry" />
        </mxCell>
        <mxCell id="_BVxVds4RlHdZlTq_FJE-16" value="Tampilkan Metode pembayaran" style="rounded=1;whiteSpace=wrap;html=1;shadow=0;labelBackgroundColor=none;strokeWidth=1;fontFamily=Verdana;fontSize=8;align=center;" vertex="1" parent="77e6c97f196da883-3">
          <mxGeometry x="35" y="390" width="100" height="60" as="geometry" />
        </mxCell>
        <mxCell id="_BVxVds4RlHdZlTq_FJE-19" value="Yes" style="edgeStyle=orthogonalEdgeStyle;rounded=0;orthogonalLoop=1;jettySize=auto;html=1;entryX=0.5;entryY=0;entryDx=0;entryDy=0;" edge="1" parent="77e6c97f196da883-3" source="_BVxVds4RlHdZlTq_FJE-17" target="_BVxVds4RlHdZlTq_FJE-16">
          <mxGeometry relative="1" as="geometry" />
        </mxCell>
        <mxCell id="_BVxVds4RlHdZlTq_FJE-17" value="Verifikasi form" style="rhombus;whiteSpace=wrap;html=1;fillColor=#FFFFFF;" vertex="1" parent="77e6c97f196da883-3">
          <mxGeometry x="35" y="280" width="100" height="60" as="geometry" />
        </mxCell>
        <mxCell id="_BVxVds4RlHdZlTq_FJE-24" value="Sistem generate kode pembayaran" style="rounded=1;whiteSpace=wrap;html=1;shadow=0;labelBackgroundColor=none;strokeWidth=1;fontFamily=Verdana;fontSize=8;align=center;" vertex="1" parent="77e6c97f196da883-3">
          <mxGeometry x="35" y="500" width="100" height="60" as="geometry" />
        </mxCell>
        <mxCell id="_BVxVds4RlHdZlTq_FJE-31" style="edgeStyle=orthogonalEdgeStyle;rounded=0;orthogonalLoop=1;jettySize=auto;html=1;exitX=0.5;exitY=1;exitDx=0;exitDy=0;entryX=0.5;entryY=0;entryDx=0;entryDy=0;" edge="1" parent="77e6c97f196da883-3" source="_BVxVds4RlHdZlTq_FJE-28" target="_BVxVds4RlHdZlTq_FJE-30">
          <mxGeometry relative="1" as="geometry" />
        </mxCell>
        <mxCell id="_BVxVds4RlHdZlTq_FJE-28" value="Validasi pembayaran" style="rounded=1;whiteSpace=wrap;html=1;shadow=0;labelBackgroundColor=none;strokeWidth=1;fontFamily=Verdana;fontSize=8;align=center;" vertex="1" parent="77e6c97f196da883-3">
          <mxGeometry x="35" y="590" width="100" height="60" as="geometry" />
        </mxCell>
        <mxCell id="_BVxVds4RlHdZlTq_FJE-33" style="edgeStyle=orthogonalEdgeStyle;rounded=0;orthogonalLoop=1;jettySize=auto;html=1;entryX=0.5;entryY=0;entryDx=0;entryDy=0;" edge="1" parent="77e6c97f196da883-3" source="_BVxVds4RlHdZlTq_FJE-30" target="_BVxVds4RlHdZlTq_FJE-32">
          <mxGeometry relative="1" as="geometry" />
        </mxCell>
        <mxCell id="_BVxVds4RlHdZlTq_FJE-30" value="Generate kode event" style="rounded=1;whiteSpace=wrap;html=1;shadow=0;labelBackgroundColor=none;strokeWidth=1;fontFamily=Verdana;fontSize=8;align=center;" vertex="1" parent="77e6c97f196da883-3">
          <mxGeometry x="35" y="680" width="100" height="60" as="geometry" />
        </mxCell>
        <mxCell id="_BVxVds4RlHdZlTq_FJE-32" value="Kirim email ke user" style="rounded=1;whiteSpace=wrap;html=1;shadow=0;labelBackgroundColor=none;strokeWidth=1;fontFamily=Verdana;fontSize=8;align=center;" vertex="1" parent="77e6c97f196da883-3">
          <mxGeometry x="35" y="770" width="100" height="60" as="geometry" />
        </mxCell>
        <mxCell id="_BVxVds4RlHdZlTq_FJE-12" style="edgeStyle=orthogonalEdgeStyle;rounded=0;orthogonalLoop=1;jettySize=auto;html=1;entryX=1;entryY=0.5;entryDx=0;entryDy=0;" edge="1" parent="77e6c97f196da883-1" source="_BVxVds4RlHdZlTq_FJE-9" target="77e6c97f196da883-11">
          <mxGeometry relative="1" as="geometry" />
        </mxCell>
        <mxCell id="_BVxVds4RlHdZlTq_FJE-13" style="edgeStyle=orthogonalEdgeStyle;rounded=0;orthogonalLoop=1;jettySize=auto;html=1;entryX=0.5;entryY=0;entryDx=0;entryDy=0;exitX=0.5;exitY=1;exitDx=0;exitDy=0;" edge="1" parent="77e6c97f196da883-1" source="77e6c97f196da883-11" target="_BVxVds4RlHdZlTq_FJE-10">
          <mxGeometry relative="1" as="geometry" />
        </mxCell>
        <mxCell id="_BVxVds4RlHdZlTq_FJE-14" style="edgeStyle=orthogonalEdgeStyle;rounded=0;orthogonalLoop=1;jettySize=auto;html=1;entryX=1;entryY=0.5;entryDx=0;entryDy=0;" edge="1" parent="77e6c97f196da883-1" source="_BVxVds4RlHdZlTq_FJE-10" target="77e6c97f196da883-18">
          <mxGeometry relative="1" as="geometry" />
        </mxCell>
        <mxCell id="_BVxVds4RlHdZlTq_FJE-18" style="edgeStyle=orthogonalEdgeStyle;rounded=0;orthogonalLoop=1;jettySize=auto;html=1;entryX=0;entryY=0.5;entryDx=0;entryDy=0;exitX=0.5;exitY=1;exitDx=0;exitDy=0;" edge="1" parent="77e6c97f196da883-1" source="_BVxVds4RlHdZlTq_FJE-8" target="_BVxVds4RlHdZlTq_FJE-17">
          <mxGeometry relative="1" as="geometry">
            <Array as="points">
              <mxPoint x="80" y="400" />
              <mxPoint x="195" y="400" />
            </Array>
          </mxGeometry>
        </mxCell>
        <mxCell id="_BVxVds4RlHdZlTq_FJE-21" value="No" style="edgeStyle=orthogonalEdgeStyle;rounded=0;orthogonalLoop=1;jettySize=auto;html=1;entryX=1;entryY=0.5;entryDx=0;entryDy=0;exitX=0.5;exitY=0;exitDx=0;exitDy=0;" edge="1" parent="77e6c97f196da883-1" source="_BVxVds4RlHdZlTq_FJE-17" target="_BVxVds4RlHdZlTq_FJE-8">
          <mxGeometry relative="1" as="geometry">
            <Array as="points">
              <mxPoint x="245" y="290" />
              <mxPoint x="170" y="290" />
              <mxPoint x="170" y="350" />
            </Array>
          </mxGeometry>
        </mxCell>
        <mxCell id="_BVxVds4RlHdZlTq_FJE-29" style="edgeStyle=orthogonalEdgeStyle;rounded=0;orthogonalLoop=1;jettySize=auto;html=1;exitX=0.5;exitY=1;exitDx=0;exitDy=0;" edge="1" parent="77e6c97f196da883-1" source="_BVxVds4RlHdZlTq_FJE-26" target="_BVxVds4RlHdZlTq_FJE-28">
          <mxGeometry relative="1" as="geometry" />
        </mxCell>
        <mxCell id="_BVxVds4RlHdZlTq_FJE-37" style="edgeStyle=orthogonalEdgeStyle;rounded=0;orthogonalLoop=1;jettySize=auto;html=1;entryX=1;entryY=0.5;entryDx=0;entryDy=0;" edge="1" parent="77e6c97f196da883-1" source="_BVxVds4RlHdZlTq_FJE-32" target="_BVxVds4RlHdZlTq_FJE-35">
          <mxGeometry relative="1" as="geometry" />
        </mxCell>
      </root>
    </mxGraphModel>
  </diagram>
</mxfile>
